<svg width="88" height="88" viewBox="0 0 88 88" fill="none" xmlns="http://www.w3.org/2000/svg">
<path d="M79.6924 0C84.1106 3.82404e-05 87.6924 3.58175 87.6924 8V79.6924C87.6923 84.1106 84.1106 87.6923 79.6924 87.6924H8C3.58175 87.6924 4.14195e-05 84.1106 0 79.6924V8C0 3.58172 3.58172 1.86204e-07 8 0H79.6924ZM46.0166 50.4854C45.4005 51.1202 44.567 51.4765 43.6982 51.4766C42.8295 51.4766 41.996 51.1202 41.3799 50.4854L17.6533 25.959C17.5804 26.2369 17.5416 26.5236 17.5381 26.8115V60.8994C17.5382 61.8033 17.8853 62.6704 18.502 63.3096C19.1186 63.9487 19.9551 64.3076 20.8271 64.3076H66.8652C67.7373 64.3076 68.5737 63.9487 69.1904 63.3096C69.807 62.6704 70.1542 61.8033 70.1543 60.8994V26.8115C70.1412 26.4564 70.0737 26.1053 69.9561 25.7715L46.0166 50.4854ZM35.0664 48.5762L23.0791 60.8994H20.7939V58.4619L32.748 46.1729L35.0664 48.5762ZM66.8164 58.4619L66.832 60.8994H64.5303L52.5439 48.5762L54.8623 46.1729L66.8164 58.4619ZM67.5234 23.4023C67.2993 23.3784 67.0728 23.3784 66.8486 23.4023H20.8105C20.5156 23.4071 20.2226 23.4534 19.9395 23.5391L43.6982 48.0654L67.5234 23.4023Z" fill="black"/>
</svg>
