<svg width="88" height="88" viewBox="0 0 88 88" fill="none" xmlns="http://www.w3.org/2000/svg">
<path d="M43.8344 29.2245C35.7833 29.2245 29.213 35.7949 29.213 43.8462C29.213 51.8974 35.7833 58.4678 43.8344 58.4678C51.8854 58.4678 58.4557 51.8974 58.4557 43.8462C58.4557 35.7949 51.8854 29.2245 43.8344 29.2245ZM87.6874 43.8462C87.6874 37.7913 87.7423 31.7913 87.4022 25.7474C87.0622 18.7273 85.4608 12.4969 80.3274 7.36343C75.183 2.21899 68.9638 0.628493 61.9438 0.288455C55.889 -0.0515822 49.8891 0.00326265 43.8453 0.00326265C37.7906 0.00326265 31.7907 -0.0515822 25.7469 0.288455C18.7269 0.628493 12.4967 2.22996 7.36329 7.36343C2.21895 12.5079 0.628481 18.7273 0.28845 25.7474C-0.0515813 31.8022 0.00326259 37.8023 0.00326259 43.8462C0.00326259 49.89 -0.0515813 55.901 0.28845 61.9449C0.628481 68.965 2.22992 75.1954 7.36329 80.3289C12.5076 85.4733 18.7269 87.0638 25.7469 87.4038C31.8017 87.7439 37.8016 87.689 43.8453 87.689C49.9001 87.689 55.9 87.7439 61.9438 87.4038C68.9638 87.0638 75.194 85.4623 80.3274 80.3289C85.4717 75.1844 87.0622 68.965 87.4022 61.9449C87.7532 55.901 87.6874 49.901 87.6874 43.8462ZM43.8344 66.3435C31.3848 66.3435 21.3375 56.2959 21.3375 43.8462C21.3375 31.3964 31.3848 21.3488 43.8344 21.3488C56.2839 21.3488 66.3313 31.3964 66.3313 43.8462C66.3313 56.2959 56.2839 66.3435 43.8344 66.3435ZM67.2526 25.6816C64.3459 25.6816 61.9986 23.3342 61.9986 20.4274C61.9986 17.5207 64.3459 15.1733 67.2526 15.1733C70.1594 15.1733 72.5067 17.5207 72.5067 20.4274C72.5075 21.1177 72.3722 21.8013 72.1085 22.4391C71.8448 23.077 71.4578 23.6565 70.9697 24.1446C70.4817 24.6327 69.9021 25.0197 69.2643 25.2834C68.6265 25.5471 67.9429 25.6824 67.2526 25.6816Z" fill="black"/>
</svg>
