<svg width="88" height="88" viewBox="0 0 88 88" fill="none" xmlns="http://www.w3.org/2000/svg">
<path d="M79.6924 0C84.1106 3.82404e-05 87.6924 3.58175 87.6924 8V79.6924C87.6923 84.1106 84.1106 87.6923 79.6924 87.6924H8C3.58175 87.6924 4.14195e-05 84.1106 0 79.6924V8C0 3.58172 3.58172 1.86204e-07 8 0H79.6924ZM55.042 17.5381C51.7622 17.5659 48.4783 17.5381 45.1758 17.585L45.1777 17.5869C45.1001 26.8866 45.1507 36.1903 45.1299 45.5195C45.0996 49.659 45.1981 53.7814 44.9502 57.9209C44.9217 58.825 44.39 59.6111 43.915 60.3799C42.4464 62.5755 39.7458 64.0757 36.9277 64.1035C32.677 64.4489 28.6947 61.2566 28.0947 57.459C28.0644 56.2129 27.9153 54.9096 28.4375 53.7363C29.0698 52.0769 30.2793 50.6536 31.8799 49.6865C34.0677 48.2928 36.9942 48.0843 39.498 48.8271C39.4981 45.3993 39.6468 41.9747 39.5957 38.5469C34.115 37.6063 28.2617 39.1966 24.083 42.5342C20.3963 45.3998 18.0206 49.6122 17.5664 54.0156C17.5208 55.1632 17.5309 56.3122 17.5967 57.459C18.119 62.8743 21.706 67.9195 26.8027 70.6758C29.8781 72.3385 33.4837 73.2409 37.0928 73.0518C42.9765 72.9613 48.7053 70.0687 52.0059 65.6309C54.0574 62.9649 55.2211 59.745 55.418 56.5098C55.4956 49.7755 55.4488 43.0218 55.4658 36.2598C56.7773 37.0459 58.1174 37.8151 59.5557 38.4121C62.8581 39.8491 66.515 40.543 70.1543 40.6523V31.334C66.2708 30.9365 62.2789 29.7613 59.457 27.1943C56.6295 24.6898 55.2407 21.0806 55.042 17.5381Z" fill="black"/>
</svg>
