<svg width="88" height="88" viewBox="0 0 88 88" fill="none" xmlns="http://www.w3.org/2000/svg">
<path d="M79.6924 0C84.1106 3.82404e-05 87.6924 3.58175 87.6924 8V79.6924C87.6923 84.1106 84.1106 87.6923 79.6924 87.6924H8C3.58175 87.6924 4.14195e-05 84.1106 0 79.6924V8C0 3.58172 3.58172 1.86204e-07 8 0H79.6924ZM46.4453 38.6992L35.4092 23.8906L22.3115 23.8252L39.2129 46.5137L21.959 64.9521L24.8721 65.9814L40.9561 48.8535L52.6045 64.4902H65.666L48.1631 41.0049L64.1377 24.0049L61.2695 22.8613L46.4453 38.6992ZM34.6699 25.3506L45.4277 39.7852L44.9512 40.2959L46.1523 40.7578L62.749 63.0254H53.3398L41.9746 47.7686L42.5186 47.1904L41.1758 46.6963L25.2402 25.3037L34.6699 25.3506Z" fill="black"/>
</svg>
